<mxfile host="Electron" modified="2023-05-17T02:58:09.525Z" agent="Mozilla/5.0 (Windows NT 10.0; Win64; x64) AppleWebKit/537.36 (KHTML, like Gecko) draw.io/21.2.8 Chrome/112.0.5615.165 Electron/24.2.0 Safari/537.36" etag="gX3oYerhiiD2C53_u5o2" version="21.2.8" type="device" pages="5">
  <diagram id="YE2KV2Q3KRrznWG4gXMc" name="scratch">
    <mxGraphModel dx="1418" dy="868" grid="1" gridSize="10" guides="1" tooltips="1" connect="1" arrows="1" fold="1" page="1" pageScale="1" pageWidth="850" pageHeight="1100" math="0" shadow="0">
      <root>
        <mxCell id="0" />
        <mxCell id="1" parent="0" />
      </root>
    </mxGraphModel>
  </diagram>
  <diagram name="01-dashboard" id="rC-0v1IrGe5oJYiajyPj">
    <mxGraphModel dx="2026" dy="1240" grid="1" gridSize="10" guides="1" tooltips="1" connect="1" arrows="1" fold="1" page="1" pageScale="1" pageWidth="850" pageHeight="1100" math="0" shadow="0">
      <root>
        <mxCell id="0" />
        <mxCell id="1" parent="0" />
        <mxCell id="kBKDDTeh2fyr3US0Vkds-1" value="" style="rounded=0;whiteSpace=wrap;html=1;fillColor=#E6E6E6;" vertex="1" parent="1">
          <mxGeometry x="40" y="40" width="1440" height="920" as="geometry" />
        </mxCell>
        <mxCell id="kBKDDTeh2fyr3US0Vkds-2" value="" style="rounded=0;whiteSpace=wrap;html=1;" vertex="1" parent="1">
          <mxGeometry x="80" y="80" width="1360" height="840" as="geometry" />
        </mxCell>
        <mxCell id="V341Zg-5s5lBLoUYkd8s-2" value="&lt;span style=&quot;border-color: var(--border-color); text-align: left; background-color: initial;&quot;&gt;&lt;font style=&quot;font-size: 36px;&quot;&gt;&lt;b&gt;Dashboard&lt;/b&gt;&lt;/font&gt;&lt;br&gt;&lt;/span&gt;&lt;font style=&quot;font-size: 36px;&quot;&gt;After logging in, the merchant could be presented with a dashboard that provides a summary of transactions. This could include information like the total number, delivered, received, and signed for, etc.&lt;/font&gt;" style="rounded=1;whiteSpace=wrap;html=1;fillColor=#CCCCFF;" vertex="1" parent="1">
          <mxGeometry x="300" y="370" width="920" height="360" as="geometry" />
        </mxCell>
        <mxCell id="V341Zg-5s5lBLoUYkd8s-3" value="&lt;font style=&quot;font-size: 18px;&quot;&gt;&lt;b style=&quot;&quot;&gt;Transaction&lt;br&gt;Summary&lt;/b&gt;&lt;/font&gt;" style="shape=step;perimeter=stepPerimeter;whiteSpace=wrap;html=1;fixedSize=1;fillColor=#CCCCFF;" vertex="1" parent="1">
          <mxGeometry x="180" y="130" width="160" height="80" as="geometry" />
        </mxCell>
        <mxCell id="V341Zg-5s5lBLoUYkd8s-4" value="&lt;span style=&quot;font-size: 18px;&quot;&gt;&lt;b&gt;Pending&lt;/b&gt;&lt;/span&gt;" style="shape=step;perimeter=stepPerimeter;whiteSpace=wrap;html=1;fixedSize=1;" vertex="1" parent="1">
          <mxGeometry x="380" y="130" width="160" height="80" as="geometry" />
        </mxCell>
        <mxCell id="V341Zg-5s5lBLoUYkd8s-5" value="&lt;span style=&quot;font-size: 18px;&quot;&gt;&lt;b&gt;Fulfilled&lt;/b&gt;&lt;/span&gt;" style="shape=step;perimeter=stepPerimeter;whiteSpace=wrap;html=1;fixedSize=1;" vertex="1" parent="1">
          <mxGeometry x="580" y="130" width="160" height="80" as="geometry" />
        </mxCell>
        <mxCell id="V341Zg-5s5lBLoUYkd8s-6" value="&lt;span style=&quot;font-size: 18px;&quot;&gt;&lt;b&gt;Shipped&lt;/b&gt;&lt;/span&gt;" style="shape=step;perimeter=stepPerimeter;whiteSpace=wrap;html=1;fixedSize=1;" vertex="1" parent="1">
          <mxGeometry x="780" y="130" width="160" height="80" as="geometry" />
        </mxCell>
        <mxCell id="V341Zg-5s5lBLoUYkd8s-7" value="&lt;span style=&quot;font-size: 18px;&quot;&gt;&lt;b&gt;Received&lt;/b&gt;&lt;/span&gt;" style="shape=step;perimeter=stepPerimeter;whiteSpace=wrap;html=1;fixedSize=1;" vertex="1" parent="1">
          <mxGeometry x="980" y="130" width="160" height="80" as="geometry" />
        </mxCell>
        <mxCell id="V341Zg-5s5lBLoUYkd8s-8" value="&lt;span style=&quot;font-size: 18px;&quot;&gt;&lt;b&gt;Delivered&lt;/b&gt;&lt;/span&gt;" style="shape=step;perimeter=stepPerimeter;whiteSpace=wrap;html=1;fixedSize=1;" vertex="1" parent="1">
          <mxGeometry x="1180" y="130" width="160" height="80" as="geometry" />
        </mxCell>
      </root>
    </mxGraphModel>
  </diagram>
  <diagram id="KZ-hlvwYFB-jLoMFSqez" name="02-list">
    <mxGraphModel dx="1773" dy="1085" grid="1" gridSize="10" guides="1" tooltips="1" connect="1" arrows="1" fold="1" page="1" pageScale="1" pageWidth="850" pageHeight="1100" math="0" shadow="0">
      <root>
        <mxCell id="0" />
        <mxCell id="1" parent="0" />
        <mxCell id="tq0FpZqkhnpJqEuKoxBH-1" value="" style="rounded=0;whiteSpace=wrap;html=1;fillColor=#E6E6E6;" vertex="1" parent="1">
          <mxGeometry x="40" y="40" width="1440" height="920" as="geometry" />
        </mxCell>
        <mxCell id="tq0FpZqkhnpJqEuKoxBH-2" value="" style="rounded=0;whiteSpace=wrap;html=1;" vertex="1" parent="1">
          <mxGeometry x="80" y="80" width="1360" height="840" as="geometry" />
        </mxCell>
        <mxCell id="tq0FpZqkhnpJqEuKoxBH-3" value="&lt;font style=&quot;font-size: 36px;&quot;&gt;&lt;span style=&quot;border-color: var(--border-color); text-align: left; background-color: initial;&quot;&gt;&lt;font style=&quot;&quot;&gt;&lt;b&gt;Transaction List&lt;/b&gt;&lt;br&gt;&lt;/font&gt;&lt;/span&gt;&lt;font style=&quot;&quot;&gt;The merchant could navigate to a page that lists all their transactions. Each could be represented as a row in a table, with columns for the order ID, date, delivery status, and so on.&lt;/font&gt;&lt;/font&gt;" style="rounded=1;whiteSpace=wrap;html=1;fillColor=#CCCCFF;" vertex="1" parent="1">
          <mxGeometry x="300" y="370" width="920" height="360" as="geometry" />
        </mxCell>
        <mxCell id="tq0FpZqkhnpJqEuKoxBH-4" value="&lt;font style=&quot;font-size: 18px;&quot;&gt;&lt;b style=&quot;&quot;&gt;Transaction&lt;br&gt;Summary&lt;/b&gt;&lt;/font&gt;" style="shape=step;perimeter=stepPerimeter;whiteSpace=wrap;html=1;fixedSize=1;fillColor=#CCCCFF;" vertex="1" parent="1">
          <mxGeometry x="180" y="130" width="160" height="80" as="geometry" />
        </mxCell>
        <mxCell id="tq0FpZqkhnpJqEuKoxBH-5" value="&lt;span style=&quot;font-size: 18px;&quot;&gt;&lt;b&gt;Pending&lt;/b&gt;&lt;/span&gt;" style="shape=step;perimeter=stepPerimeter;whiteSpace=wrap;html=1;fixedSize=1;fillColor=#E6E6E6;" vertex="1" parent="1">
          <mxGeometry x="380" y="130" width="160" height="80" as="geometry" />
        </mxCell>
        <mxCell id="tq0FpZqkhnpJqEuKoxBH-6" value="&lt;span style=&quot;font-size: 18px;&quot;&gt;&lt;b&gt;Fulfilled&lt;/b&gt;&lt;/span&gt;" style="shape=step;perimeter=stepPerimeter;whiteSpace=wrap;html=1;fixedSize=1;fillColor=#E6E6E6;" vertex="1" parent="1">
          <mxGeometry x="580" y="130" width="160" height="80" as="geometry" />
        </mxCell>
        <mxCell id="tq0FpZqkhnpJqEuKoxBH-7" value="&lt;span style=&quot;font-size: 18px;&quot;&gt;&lt;b&gt;Shipped&lt;/b&gt;&lt;/span&gt;" style="shape=step;perimeter=stepPerimeter;whiteSpace=wrap;html=1;fixedSize=1;fillColor=#E6E6E6;" vertex="1" parent="1">
          <mxGeometry x="780" y="130" width="160" height="80" as="geometry" />
        </mxCell>
        <mxCell id="tq0FpZqkhnpJqEuKoxBH-8" value="&lt;span style=&quot;font-size: 18px;&quot;&gt;&lt;b&gt;Received&lt;/b&gt;&lt;/span&gt;" style="shape=step;perimeter=stepPerimeter;whiteSpace=wrap;html=1;fixedSize=1;fillColor=#E6E6E6;" vertex="1" parent="1">
          <mxGeometry x="980" y="130" width="160" height="80" as="geometry" />
        </mxCell>
        <mxCell id="tq0FpZqkhnpJqEuKoxBH-9" value="&lt;span style=&quot;font-size: 18px;&quot;&gt;&lt;b&gt;Delivered&lt;/b&gt;&lt;/span&gt;" style="shape=step;perimeter=stepPerimeter;whiteSpace=wrap;html=1;fixedSize=1;fillColor=#E6E6E6;" vertex="1" parent="1">
          <mxGeometry x="1180" y="130" width="160" height="80" as="geometry" />
        </mxCell>
      </root>
    </mxGraphModel>
  </diagram>
  <diagram id="_uLUzamn2wWzM4w-cw5C" name="03-detail">
    <mxGraphModel dx="2026" dy="1240" grid="1" gridSize="10" guides="1" tooltips="1" connect="1" arrows="1" fold="1" page="1" pageScale="1" pageWidth="850" pageHeight="1100" math="0" shadow="0">
      <root>
        <mxCell id="0" />
        <mxCell id="1" parent="0" />
        <mxCell id="JtDFeM7rdF3h5H5PaKMI-1" value="" style="rounded=0;whiteSpace=wrap;html=1;fillColor=#E6E6E6;" vertex="1" parent="1">
          <mxGeometry x="40" y="40" width="1440" height="920" as="geometry" />
        </mxCell>
        <mxCell id="JtDFeM7rdF3h5H5PaKMI-2" value="" style="rounded=0;whiteSpace=wrap;html=1;" vertex="1" parent="1">
          <mxGeometry x="80" y="80" width="1360" height="840" as="geometry" />
        </mxCell>
        <mxCell id="JtDFeM7rdF3h5H5PaKMI-3" value="&lt;span style=&quot;border-color: var(--border-color); text-align: left; background-color: initial;&quot;&gt;&lt;font style=&quot;font-size: 36px;&quot;&gt;&lt;b&gt;Transaction Details&lt;br&gt;&lt;/b&gt;&lt;/font&gt;&lt;/span&gt;&lt;font style=&quot;font-size: 36px;&quot;&gt;By clicking on a transaction, the merchant could view more detailed information about it. This could include a list of the items in the transaction, the delivery address, and the current status.&lt;/font&gt;" style="rounded=1;whiteSpace=wrap;html=1;fillColor=#CCCCFF;" vertex="1" parent="1">
          <mxGeometry x="300" y="370" width="920" height="360" as="geometry" />
        </mxCell>
        <mxCell id="JtDFeM7rdF3h5H5PaKMI-4" value="&lt;font style=&quot;font-size: 18px;&quot;&gt;&lt;b style=&quot;&quot;&gt;Transaction&lt;br&gt;Summary&lt;/b&gt;&lt;/font&gt;" style="shape=step;perimeter=stepPerimeter;whiteSpace=wrap;html=1;fixedSize=1;fillColor=#CCCCFF;" vertex="1" parent="1">
          <mxGeometry x="180" y="130" width="160" height="80" as="geometry" />
        </mxCell>
        <mxCell id="JtDFeM7rdF3h5H5PaKMI-5" value="&lt;span style=&quot;font-size: 18px;&quot;&gt;&lt;b&gt;Pending&lt;/b&gt;&lt;/span&gt;" style="shape=step;perimeter=stepPerimeter;whiteSpace=wrap;html=1;fixedSize=1;fillColor=#E6E6E6;" vertex="1" parent="1">
          <mxGeometry x="380" y="130" width="160" height="80" as="geometry" />
        </mxCell>
        <mxCell id="JtDFeM7rdF3h5H5PaKMI-6" value="&lt;span style=&quot;font-size: 18px;&quot;&gt;&lt;b&gt;Fulfilled&lt;/b&gt;&lt;/span&gt;" style="shape=step;perimeter=stepPerimeter;whiteSpace=wrap;html=1;fixedSize=1;fillColor=#E6E6E6;" vertex="1" parent="1">
          <mxGeometry x="580" y="130" width="160" height="80" as="geometry" />
        </mxCell>
        <mxCell id="JtDFeM7rdF3h5H5PaKMI-7" value="&lt;span style=&quot;font-size: 18px;&quot;&gt;&lt;b&gt;Shipped&lt;/b&gt;&lt;/span&gt;" style="shape=step;perimeter=stepPerimeter;whiteSpace=wrap;html=1;fixedSize=1;fillColor=#E6E6E6;" vertex="1" parent="1">
          <mxGeometry x="780" y="130" width="160" height="80" as="geometry" />
        </mxCell>
        <mxCell id="JtDFeM7rdF3h5H5PaKMI-8" value="&lt;span style=&quot;font-size: 18px;&quot;&gt;&lt;b&gt;Received&lt;/b&gt;&lt;/span&gt;" style="shape=step;perimeter=stepPerimeter;whiteSpace=wrap;html=1;fixedSize=1;fillColor=#E6E6E6;" vertex="1" parent="1">
          <mxGeometry x="980" y="130" width="160" height="80" as="geometry" />
        </mxCell>
        <mxCell id="JtDFeM7rdF3h5H5PaKMI-9" value="&lt;span style=&quot;font-size: 18px;&quot;&gt;&lt;b&gt;Delivered&lt;/b&gt;&lt;/span&gt;" style="shape=step;perimeter=stepPerimeter;whiteSpace=wrap;html=1;fixedSize=1;fillColor=#E6E6E6;" vertex="1" parent="1">
          <mxGeometry x="1180" y="130" width="160" height="80" as="geometry" />
        </mxCell>
      </root>
    </mxGraphModel>
  </diagram>
  <diagram id="LYeMFi-ZiAV8DEAm0UKa" name="04-custody">
    <mxGraphModel dx="2026" dy="1240" grid="1" gridSize="10" guides="1" tooltips="1" connect="1" arrows="1" fold="1" page="1" pageScale="1" pageWidth="850" pageHeight="1100" math="0" shadow="0">
      <root>
        <mxCell id="0" />
        <mxCell id="1" parent="0" />
        <mxCell id="SAnoEd3s7Y_nUnOwy7hQ-1" value="" style="rounded=0;whiteSpace=wrap;html=1;fillColor=#E6E6E6;" vertex="1" parent="1">
          <mxGeometry x="40" y="40" width="1440" height="920" as="geometry" />
        </mxCell>
        <mxCell id="SAnoEd3s7Y_nUnOwy7hQ-2" value="" style="rounded=0;whiteSpace=wrap;html=1;" vertex="1" parent="1">
          <mxGeometry x="80" y="80" width="1360" height="840" as="geometry" />
        </mxCell>
        <mxCell id="SAnoEd3s7Y_nUnOwy7hQ-3" value="&lt;font style=&quot;font-size: 36px;&quot;&gt;&lt;strong style=&quot;border-color: var(--border-color); text-align: left; background-color: initial;&quot;&gt;Chain of Custody&lt;br&gt;&lt;/strong&gt;This page displays the chain of custody, represented as a series of blockchain transactions. Each transaction could include information like the date and time of the transaction, the party who signed for the transaction at that step, and the status of the transaction. This information could be presented in a chronological list or timeline format.&lt;/font&gt;" style="rounded=1;whiteSpace=wrap;html=1;fillColor=#CCCCFF;" vertex="1" parent="1">
          <mxGeometry x="300" y="370" width="920" height="360" as="geometry" />
        </mxCell>
        <mxCell id="SAnoEd3s7Y_nUnOwy7hQ-4" value="&lt;font style=&quot;font-size: 18px;&quot;&gt;&lt;b style=&quot;&quot;&gt;Transaction&lt;br&gt;Summary&lt;/b&gt;&lt;/font&gt;" style="shape=step;perimeter=stepPerimeter;whiteSpace=wrap;html=1;fixedSize=1;fillColor=#CCCCFF;" vertex="1" parent="1">
          <mxGeometry x="180" y="130" width="160" height="80" as="geometry" />
        </mxCell>
        <mxCell id="SAnoEd3s7Y_nUnOwy7hQ-5" value="&lt;span style=&quot;font-size: 18px;&quot;&gt;&lt;b&gt;Pending&lt;/b&gt;&lt;/span&gt;" style="shape=step;perimeter=stepPerimeter;whiteSpace=wrap;html=1;fixedSize=1;fillColor=#E6E6E6;" vertex="1" parent="1">
          <mxGeometry x="380" y="130" width="160" height="80" as="geometry" />
        </mxCell>
        <mxCell id="SAnoEd3s7Y_nUnOwy7hQ-6" value="&lt;span style=&quot;font-size: 18px;&quot;&gt;&lt;b&gt;Fulfilled&lt;/b&gt;&lt;/span&gt;" style="shape=step;perimeter=stepPerimeter;whiteSpace=wrap;html=1;fixedSize=1;fillColor=#E6E6E6;" vertex="1" parent="1">
          <mxGeometry x="580" y="130" width="160" height="80" as="geometry" />
        </mxCell>
        <mxCell id="SAnoEd3s7Y_nUnOwy7hQ-7" value="&lt;span style=&quot;font-size: 18px;&quot;&gt;&lt;b&gt;Shipped&lt;/b&gt;&lt;/span&gt;" style="shape=step;perimeter=stepPerimeter;whiteSpace=wrap;html=1;fixedSize=1;fillColor=#E6E6E6;" vertex="1" parent="1">
          <mxGeometry x="780" y="130" width="160" height="80" as="geometry" />
        </mxCell>
        <mxCell id="SAnoEd3s7Y_nUnOwy7hQ-8" value="&lt;span style=&quot;font-size: 18px;&quot;&gt;&lt;b&gt;Received&lt;/b&gt;&lt;/span&gt;" style="shape=step;perimeter=stepPerimeter;whiteSpace=wrap;html=1;fixedSize=1;fillColor=#E6E6E6;" vertex="1" parent="1">
          <mxGeometry x="980" y="130" width="160" height="80" as="geometry" />
        </mxCell>
        <mxCell id="SAnoEd3s7Y_nUnOwy7hQ-9" value="&lt;span style=&quot;font-size: 18px;&quot;&gt;&lt;b&gt;Delivered&lt;/b&gt;&lt;/span&gt;" style="shape=step;perimeter=stepPerimeter;whiteSpace=wrap;html=1;fixedSize=1;fillColor=#E6E6E6;" vertex="1" parent="1">
          <mxGeometry x="1180" y="130" width="160" height="80" as="geometry" />
        </mxCell>
      </root>
    </mxGraphModel>
  </diagram>
</mxfile>
